HIERARCHY
ROOT Hips
{
  OFFSET -31.5692 30.0904 122.763
  CHANNELS 6 Xposition Yposition Zposition Zrotation Xrotation Yrotation
  JOINT LeftUpLeg
  {
    OFFSET 8.64259 1.95398 -2.38835
    CHANNELS 3 Zrotation Xrotation Yrotation
    JOINT LeftLeg
    {
      OFFSET 43.7702 0 0
      CHANNELS 3 Zrotation Xrotation Yrotation
      JOINT LeftFoot
      {
        OFFSET 40.6238 0 0
        CHANNELS 3 Zrotation Xrotation Yrotation
        JOINT LeftToeBase
        {
          OFFSET 12.7242 0 0
          CHANNELS 3 Zrotation Xrotation Yrotation
          End Site
          {
            OFFSET 0 0 0
          }
        }
      }
    }
  }
  JOINT RightUpLeg
  {
    OFFSET -8.2249 1.95398 -2.59336
    CHANNELS 3 Zrotation Xrotation Yrotation
    JOINT RightLeg
    {
      OFFSET 43.5653 0 0
      CHANNELS 3 Zrotation Xrotation Yrotation
      JOINT RightFoot
      {
        OFFSET 40.6238 0 0
        CHANNELS 3 Zrotation Xrotation Yrotation
        JOINT RightToeBase
        {
          OFFSET 12.7242 0 0
          CHANNELS 3 Zrotation Xrotation Yrotation
          End Site
          {
            OFFSET 0 0 0
          }
        }
      }
    }
  }
  JOINT Spine
  {
    OFFSET 0.165834 0.87714 6.61349
    CHANNELS 3 Zrotation Xrotation Yrotation
    JOINT Spine1
    {
      OFFSET 7.38963 1.71661e-005 0
      CHANNELS 3 Zrotation Xrotation Yrotation
      JOINT Spine2
      {
        OFFSET 11.9445 1.14441e-005 0
        CHANNELS 3 Zrotation Xrotation Yrotation
        JOINT Spine3
        {
          OFFSET 14.7254 4.19617e-005 0
          CHANNELS 3 Zrotation Xrotation Yrotation
          JOINT Spine4
          {
            OFFSET 10.9679 0 0
            CHANNELS 3 Zrotation Xrotation Yrotation
            JOINT RightShoulder
            {
              OFFSET 2.46616 -1.6653 3.69651
              CHANNELS 3 Zrotation Xrotation Yrotation
              JOINT RightArm
              {
                OFFSET 13.0012 0 0
                CHANNELS 3 Zrotation Xrotation Yrotation
                JOINT RightForeArm
                {
                  OFFSET 28.7848 1.62311e-005 0
                  CHANNELS 3 Zrotation Xrotation Yrotation
                  JOINT RightHand
                  {
                    OFFSET 26.5688 1.62095e-005 0
                    CHANNELS 3 Zrotation Xrotation Yrotation
                    End Site
                    {
                      OFFSET 0 0 0
                    }
                  }
                }
              }
            }
            JOINT LeftShoulder
            {
              OFFSET 2.38034 -1.29275 -3.7523
              CHANNELS 3 Zrotation Xrotation Yrotation
              JOINT LeftArm
              {
                OFFSET 16.3182 6.07031e-005 0
                CHANNELS 3 Zrotation Xrotation Yrotation
                JOINT LeftForeArm
                {
                  OFFSET 27.0901 0 0
                  CHANNELS 3 Zrotation Xrotation Yrotation
                  JOINT LeftHand
                  {
                    OFFSET 24.5451 1.51738e-005 0
                    CHANNELS 3 Zrotation Xrotation Yrotation
                    End Site
                    {
                      OFFSET 0 0 0
                    }
                  }
                }
              }
            }
            JOINT Neck
            {
              OFFSET 5.0226 -0.0266342 0
              CHANNELS 3 Zrotation Xrotation Yrotation
              JOINT Head
              {
                OFFSET 6.69364 2.86102e-005 0
                CHANNELS 3 Zrotation Xrotation Yrotation
                End Site
                {
                  OFFSET 0 0 0
                }
              }
            }
          }
        }
      }
    }
  }
}
MOTION
Frames:	9
Frame Time:	0.0416667
1.53208 97.6097 -92.3161 -160.033 -80.0948 -162.621 -177.509 15.6589 84.5372 -8.73614 1.03614 -1.39501 61.3096 1.3502 -3.55371 17.7685 -9.07797 7.74466 168.725 -19.8909 86.7911 -20.4691 -18.5442 -2.07237 78.9166 -12.1271 -3.60956 30.8561 -1.55078 3.07589 1.1365 8.24311 -89.7095 10.385 2.39713 0.367653 -1.28381 2.411 0.261722 -23.8337 2.17577 1.0714 -3.82103 2.17578 1.07141 88.3105 -29.163 -110.454 30.3328 -4.22069 -15.4612 -0.514121 -30.2088 -20.9002 -26.1481 0.230137 -11.6424 -88.8835 -57.4748 81.7647 -21.0586 5.55965 4.43576 -3.07996 9.54096 -0.0281026 1.67405 -0.0422456 -14.312 -1.04303 -2.7351 1.51212 -0.514636 -3.00791 -3.95634 
2.06233 97.658 -84.3902 -145.486 -78.9459 -149.021 -176.538 16.8509 83.7121 -17.4329 2.64665 -1.96586 57.5083 -2.29656 -2.78716 13.2326 -10.8999 6.00397 166.451 -22.2118 82.9349 -22.1941 -22.7399 -3.78238 73.5158 -9.1164 -4.31368 37.4068 -4.26906 2.87448 1.32274 8.08585 -89.5096 10.6953 2.86017 0.712673 -0.972632 2.88876 0.585996 -23.5268 2.5137 1.53977 -3.51418 2.5137 1.53977 88.022 -29.1767 -111.02 32.5536 -5.54595 -14.2263 1.99739 -30.3587 -17.8547 -25.2422 0.115959 -11.241 -88.2013 -58.0813 82.8055 -21.8049 3.60434 5.23785 -1.8055 8.15033 -0.0417193 0.31943 0.0251007 -14.7577 -1.4689 -2.47526 0.430013 -1.42622 -2.57344 -3.61549 
2.57767 98.106 -76.6778 -143.169 -78.3545 -148.506 -175.539 15.5062 81.3737 -24.9089 3.54302 -2.94753 62.8757 0.661335 -2.04386 8.5449 -12.7618 4.31338 165.721 -19.5689 79.8832 -32.1096 -23.8151 -6.18513 66.3043 -3.8424 -3.64545 41.5096 -6.24704 6.57337 1.22843 7.96296 -89.2393 10.933 2.79765 1.24857 -0.735382 2.84989 1.12415 -23.2832 2.29309 2.03186 -3.27059 2.2931 2.03187 88.3499 -28.9704 -110.461 36.0397 -7.12958 -12.0491 4.85414 -31.3114 -14.3866 -22.4197 -0.161607 -10.4689 -88.4593 -57.8446 82.4122 -21.3244 3.97536 3.98894 -1.7681 7.80317 0.0264516 0.358188 0.0147163 -14.9397 -2.43147 -2.40513 -0.417287 -2.84368 -2.36178 -3.92217 
2.89908 98.9197 -70.1837 -140.928 -77.1721 -147.415 -175.541 10.521 79.7537 -25.4372 2.98667 -3.21135 66.6558 3.32492 -0.767499 9.77188 -12.2405 4.67731 167.832 -11.5304 78.8545 -49.7585 -24.0688 -8.12958 59.3253 1.36428 -1.35912 28.7895 -1.53725 8.00371 1.12876 8.01053 -89.1347 10.835 2.64714 1.4738 -0.833951 2.70943 1.35581 -23.3771 2.0819 2.20129 -3.3644 2.08191 2.2013 88.2634 -28.6905 -110.758 38.151 -7.85158 -9.16519 6.78015 -30.5265 -12.3984 -21.8536 -0.162855 -10.4247 -88.9312 -58.5468 81.8814 -17.047 6.47104 -3.02754 -3.26247 13.0358 -0.0675011 0.986688 0.235091 -14.9828 -2.60115 -1.97848 -0.141812 -3.49744 -1.94944 -3.86573 
2.86717 99.3049 -64.7453 -139.537 -76.0724 -146.434 -175.347 6.04444 79.1533 -25.5176 3.2717 -3.61778 69.6975 5.25781 0.657079 11.1565 -11.4503 4.74802 171.301 -2.62418 79.9967 -62.8772 -21.5101 -8.39607 58.2369 2.06712 -0.0811745 22.2026 1.33258 6.57589 0.906438 8.129 -89.1327 10.5994 2.20421 1.52512 -1.07048 2.26919 1.4266 -23.6077 1.64405 2.117 -3.59503 1.64405 2.117 88.4943 -28.7465 -110.271 39.0896 -8.09975 -6.80918 6.78266 -33.1462 -12.9907 -23.2901 -0.42428 -9.15327 -89.1489 -57.7122 81.441 -14.8664 6.07459 -9.97038 -2.9765 14.8937 -0.100596 1.82506 0.228788 -14.8173 -3.40282 -0.94168 0.0885634 -2.88613 -0.966113 -3.49125 
2.63567 99.7283 -59.9674 -139.829 -75.387 -145.746 -175.168 1.75316 79.8394 -24.8701 2.9261 -3.28953 72.1218 6.68302 0.602628 12.4624 -10.7936 4.95678 174.062 4.78246 82.8649 -66.1841 -17.3622 -7.39188 65.6908 -2.93154 -1.48743 25.0437 0.176071 6.63002 0.581387 8.24717 -89.2499 10.3685 1.50173 1.35867 -1.30222 1.56007 1.29126 -23.8354 1.02403 1.74712 -3.82276 1.02403 1.74712 88.7283 -30.1063 -109.227 38.4174 -7.68214 -5.49524 6.41463 -30.6242 -13.7552 -22.613 -0.291387 -9.45057 -89.7007 -55.14 80.1994 -12.0168 7.91407 -14.6754 -5.2676 11.3823 0.0100759 4.17505 -0.29682 -15.8139 -4.27931 0.261426 -1.6782 -2.56233 0.424384 -0.854142 
2.29788 100.113 -55.4824 -139.638 -75.7441 -143.64 -175.35 -1.56906 81.0817 -23.6657 3.13464 -1.88821 74.281 7.56096 0.334855 13.2691 -10.6889 5.64359 175.939 11.1664 86.6226 -59.6906 -12.3557 -5.67786 68.5863 -4.9188 -2.06323 25.5775 0.552358 4.05656 0.21542 8.2435 -89.5443 10.3838 0.637944 0.849583 -1.28731 0.674714 0.820678 -23.8207 0.353131 1.00202 -3.80807 0.353125 1.00201 88.9716 -30.4307 -108.614 38.1157 -7.06361 -3.81826 5.91307 -31.5605 -14.3298 -22.4074 -0.210652 -10.2222 -89.234 -53.4756 80.5527 -10.8392 7.37278 -17.766 -3.99941 9.45113 -1.20314 6.24636 -0.697859 -16.0724 -5.93533 1.40384 -1.92712 -2.42348 1.57677 0.753972 
1.58319 100.178 -51.0647 -141.475 -76.7845 -143.895 -174.867 -4.5416 82.7821 -22.6286 4.42911 -1.06317 75.9726 8.54684 0.63225 15.034 -10.0159 6.3604 176.819 15.1473 89.5505 -45.9844 -9.62118 -3.71721 67.9524 -4.83323 -1.96732 26.21 0.620235 2.56206 -0.11915 8.24132 -89.7974 10.3913 -0.144487 0.415658 -1.27973 -0.126062 0.421617 -23.8146 -0.262732 0.353018 -3.80197 -0.262741 0.353017 89.1073 -30.6791 -108.249 37.9251 -6.52939 -1.67567 5.46251 -28.9523 -15.1069 -23.0872 -0.115216 -10.0329 -89.1158 -50.9423 80.2363 -11.9032 4.93814 -22.1297 -2.86407 11.4045 -0.541896 6.63271 -1.11179 -20.5776 -6.99413 2.11216 -2.18994 -2.70337 2.29313 1.73488 
0.803242 99.7323 -46.4308 -141.606 -78.3638 -143.318 -173.95 -6.58762 84.167 -22.534 6.47218 -0.974898 78.5754 9.93894 0.520561 15.2445 -9.9931 6.55819 177.317 16.7984 90.9287 -27.1533 -6.56191 -1.60252 63.0984 -2.69804 -0.417832 27.8614 -0.2791 3.3751 -0.310796 8.19655 -89.9137 10.481 -0.579442 0.222718 -1.1898 -0.569068 0.247998 -23.726 -0.619585 0.0382669 -3.71333 -0.619579 0.0382702 89.1124 -31.6382 -107.862 37.9264 -6.13972 -0.213137 5.66662 -28.5959 -14.7758 -23.0204 -0.0600286 -10.293 -89.2022 -48.6355 79.6435 -13.064 4.11805 -25.9927 -2.16592 10.622 -2.20361 8.89328 -1.61205 -21.558 -7.09023 2.22341 -3.98717 -3.42705 2.53636 3.38876 
